<?xml version="1.0" standalone="no"?>
<!DOCTYPE svg PUBLIC "-//W3C//DTD SVG 20010904//EN"
 "http://www.w3.org/TR/2001/REC-SVG-20010904/DTD/svg10.dtd">
<svg version="1.0" xmlns="http://www.w3.org/2000/svg"
 width="960.000000pt" height="540.000000pt" viewBox="0 0 960.000000 540.000000"
 preserveAspectRatio="xMidYMid meet">

<g transform="translate(0.000000,540.000000) scale(0.100000,-0.100000)"
fill="#000000" stroke="none">
<path d="M1295 4845 c-165 -36 -321 -120 -431 -229 -91 -91 -173 -231 -216
-366 -20 -66 -23 -94 -23 -240 1 -158 2 -169 33 -260 73 -220 228 -397 438
-500 286 -140 645 -101 896 98 101 81 162 155 236 290 37 68 86 250 80 302 -1
14 1 31 6 38 10 16 -3 132 -14 132 -4 0 -6 9 -3 20 3 11 0 20 -6 20 -6 0 -11
16 -11 35 0 32 -17 93 -43 155 -6 14 -11 27 -12 30 -2 11 -38 75 -44 80 -3 3
-14 19 -24 37 -28 51 -159 193 -178 193 -4 0 -14 6 -21 13 -38 36 -44 38 -64
19 -10 -9 -37 -43 -58 -76 -22 -32 -45 -60 -52 -63 -7 -2 -27 3 -44 12 -18 9
-56 24 -84 32 -28 8 -59 22 -69 31 -11 10 -38 17 -68 18 -44 1 -85 13 -48 14
32 1 -39 29 -73 30 -21 0 -38 4 -38 9 0 5 -22 14 -49 21 -147 35 88 86 281 61
103 -13 152 -28 231 -67 15 -7 26 -10 23 -5 -3 5 1 12 10 15 23 9 31 7 14 -4
-19 -12 -6 -24 15 -13 15 9 15 11 0 23 -8 7 -18 10 -22 7 -3 -4 -11 0 -17 8
-13 18 -133 61 -226 81 -81 17 -245 17 -325 -1z m-37 -454 c24 -5 47 -13 52
-17 4 -5 11 -44 15 -86 9 -91 -4 -102 -35 -34 -27 57 -59 86 -107 97 -80 18
-133 -25 -133 -109 0 -54 26 -83 140 -157 53 -34 106 -75 118 -90 l22 -28 0
35 c0 267 217 427 529 390 135 -16 131 -13 131 -82 0 -32 3 -72 6 -89 6 -27 4
-31 -14 -31 -15 0 -22 9 -27 31 -10 44 -70 107 -113 119 -53 14 -157 12 -196
-4 -48 -20 -99 -77 -121 -138 -16 -43 -20 -78 -20 -178 1 -178 31 -265 113
-321 46 -31 159 -40 197 -15 24 16 25 20 25 124 0 59 -4 113 -8 119 -4 7 -25
19 -46 26 -20 7 -37 17 -37 22 1 6 66 11 156 13 128 2 155 0 155 -12 0 -7 -11
-17 -25 -20 -38 -10 -47 -47 -43 -176 l3 -114 -100 -18 c-55 -9 -129 -17 -165
-17 -140 -2 -268 56 -330 148 l-35 53 -9 -38 c-14 -59 -88 -129 -160 -149 -63
-18 -154 -16 -227 5 -41 12 -44 17 -54 123 -8 77 3 87 29 25 48 -107 145 -160
223 -121 29 14 41 28 51 58 27 83 -6 149 -108 213 -87 55 -139 101 -159 141
-94 184 72 347 307 302z"/>
<path d="M2770 4015 c0 -442 2 -505 15 -505 13 0 15 63 15 505 0 442 -2 505
-15 505 -13 0 -15 -63 -15 -505z"/>
<path d="M3406 4329 c-77 -19 -126 -76 -126 -149 0 -68 44 -115 171 -181 105
-55 149 -96 149 -138 0 -43 -14 -68 -50 -86 -69 -36 -171 -5 -212 64 -20 33
-26 37 -45 30 -29 -11 -29 -16 2 -62 38 -55 89 -77 177 -77 131 1 199 50 206
148 4 52 1 61 -23 90 -15 18 -59 51 -99 74 -39 22 -94 55 -123 71 -90 53 -107
126 -40 167 69 42 166 17 208 -55 21 -34 51 -46 64 -24 11 17 -43 87 -84 108
-47 24 -123 33 -175 20z"/>
<path d="M4904 4330 c-68 -14 -111 -37 -163 -85 -84 -78 -116 -188 -86 -292
30 -102 100 -175 203 -208 67 -22 252 -16 325 10 l47 17 0 128 c0 149 8 140
-114 137 -51 -1 -81 -6 -83 -14 -3 -8 13 -13 49 -15 l53 -3 3 -106 3 -106 -38
-19 c-57 -28 -145 -24 -210 9 -92 47 -136 128 -136 247 0 61 5 85 26 126 36
72 93 119 160 134 92 21 163 -5 214 -79 30 -43 50 -51 60 -25 8 22 -70 98
-126 123 -57 24 -132 33 -187 21z"/>
<path d="M7294 4330 c-68 -14 -111 -37 -163 -85 -128 -120 -127 -314 3 -433
65 -58 130 -83 222 -83 172 -1 306 116 321 279 6 71 -8 126 -50 189 -67 101
-211 158 -333 133z m163 -46 c87 -65 125 -179 105 -315 -20 -131 -88 -210
-190 -217 -73 -5 -129 21 -171 78 -40 56 -55 124 -49 234 7 125 38 184 123
230 42 23 145 17 182 -10z"/>
<path d="M8096 4329 c-133 -33 -170 -175 -68 -261 16 -13 73 -49 127 -79 64
-35 105 -65 117 -84 49 -82 -8 -152 -118 -143 -61 5 -114 40 -134 87 -14 35
-19 37 -45 17 -19 -13 -18 -15 8 -55 38 -57 90 -81 177 -82 86 -1 153 28 188
81 20 29 23 45 20 88 -6 69 -29 93 -165 168 -58 32 -119 72 -134 87 -86 85 38
187 158 130 20 -9 46 -35 61 -59 25 -39 29 -41 49 -31 l22 12 -25 43 c-41 69
-144 105 -238 81z"/>
<path d="M3990 4030 l0 -290 200 0 c170 0 200 2 200 15 0 12 -26 15 -152 17
l-153 3 0 130 0 130 103 3 c80 2 102 6 102 17 0 11 -22 15 -102 17 l-103 3 0
105 0 105 153 3 c126 2 152 5 152 17 0 13 -30 15 -200 15 l-200 0 0 -290z"/>
<path d="M5540 4141 c0 -98 5 -202 10 -232 23 -122 103 -179 250 -180 69 0 90
4 136 26 101 50 114 89 114 363 0 195 -1 202 -20 202 -19 0 -20 -7 -20 -202 0
-112 -5 -219 -10 -240 -13 -46 -77 -105 -125 -114 -96 -18 -180 21 -216 100
-16 36 -19 67 -19 249 l0 207 -50 0 -50 0 0 -179z"/>
<path d="M6360 4031 l0 -291 50 0 50 0 0 135 0 135 38 0 c36 -1 40 -4 136
-135 l99 -135 54 0 c43 0 53 3 46 13 -5 6 -51 68 -103 136 -85 112 -92 126
-76 135 96 57 122 90 119 153 -2 53 -24 89 -74 118 -29 17 -56 20 -186 23
l-153 4 0 -291z m245 245 c38 -16 65 -60 65 -105 0 -78 -48 -121 -146 -129
l-64 -5 0 127 0 126 55 0 c31 0 71 -6 90 -14z"/>
<path d="M1572 2673 c-21 -8 -44 -63 -47 -112 -1 -25 -5 -56 -9 -68 -4 -13 -3
-23 2 -23 13 0 19 17 27 75 6 34 13 49 29 55 18 7 18 9 3 9 -26 1 -18 33 11
46 37 16 22 34 -16 18z"/>
<path d="M2945 2668 c-8 -27 -35 -171 -35 -191 0 -14 3 -18 10 -11 13 13 49
214 38 214 -5 0 -10 -6 -13 -12z"/>
<path d="M8026 2645 c-6 -31 -10 -35 -37 -35 -40 0 -89 -48 -89 -87 0 -48 26
-67 69 -51 17 6 27 5 32 -4 10 -16 12 -9 33 102 18 98 19 110 7 110 -5 0 -12
-16 -15 -35z m-22 -88 c-2 -59 -46 -96 -74 -62 -15 18 3 80 28 95 31 18 47 7
46 -33z"/>
<path d="M930 2666 c0 -5 -27 -140 -35 -174 -4 -17 -2 -23 7 -20 7 3 15 20 18
39 5 30 9 34 44 40 65 11 97 67 58 102 -16 15 -92 25 -92 13z m61 -16 c27 -15
24 -56 -6 -76 -36 -24 -56 -12 -48 28 5 31 20 58 30 58 2 0 13 -5 24 -10z"/>
<path d="M2100 2654 c0 -8 5 -12 10 -9 6 3 10 10 10 16 0 5 -4 9 -10 9 -5 0
-10 -7 -10 -16z"/>
<path d="M6250 2661 c0 -6 5 -13 10 -16 6 -3 10 1 10 9 0 9 -4 16 -10 16 -5 0
-10 -4 -10 -9z"/>
<path d="M7547 2573 c-10 -54 -17 -101 -17 -105 0 -12 100 -9 100 2 0 6 -18
10 -40 10 -22 0 -40 3 -40 8 1 4 7 36 15 72 16 75 19 110 7 110 -5 0 -16 -44
-25 -97z"/>
<path d="M7775 2623 c-4 -10 -9 -48 -12 -84 -3 -53 0 -68 11 -72 9 -4 18 -2
21 3 4 6 1 10 -4 10 -27 0 -6 109 23 120 17 7 18 9 4 9 -10 1 -18 8 -18 16 0
21 -16 19 -25 -2z"/>
<path d="M1127 2563 c-4 -27 -9 -58 -13 -70 -4 -14 -2 -23 5 -23 6 0 13 12 17
28 11 52 26 81 45 87 10 4 19 11 19 16 0 13 -14 11 -29 -3 -11 -10 -14 -10
-18 0 -9 25 -20 11 -26 -35z"/>
<path d="M1305 2584 c-29 -31 -33 -85 -9 -104 22 -19 70 -16 94 5 11 10 22 33
26 52 13 68 -62 100 -111 47z m80 0 c29 -29 -5 -104 -46 -104 -19 0 -39 28
-39 55 0 17 43 65 59 65 5 0 17 -7 26 -16z"/>
<path d="M1695 2579 c-48 -57 -14 -130 53 -112 30 8 28 21 -3 15 -27 -5 -58
14 -52 31 2 6 23 15 48 21 35 9 45 16 47 35 7 49 -54 56 -93 10z m70 -5 c0
-14 -8 -20 -32 -22 -38 -4 -43 10 -11 32 27 20 43 16 43 -10z"/>
<path d="M1908 2599 c-24 -14 -23 -45 3 -63 27 -18 21 -48 -11 -56 -18 -4 -21
-8 -10 -12 8 -3 25 -2 38 3 28 11 29 45 1 75 -23 25 -19 41 15 54 20 8 20 9 1
9 -11 0 -28 -4 -37 -10z"/>
<path d="M2085 2573 c-4 -21 -11 -53 -15 -70 -5 -19 -4 -35 1 -39 11 -6 14 2
28 74 13 65 14 72 1 72 -5 0 -12 -17 -15 -37z"/>
<path d="M2235 2586 c-34 -34 -35 -89 -1 -111 35 -23 89 0 105 45 25 74 -49
121 -104 66z m66 4 c37 -20 13 -110 -30 -110 -43 0 -54 51 -20 94 23 30 23 30
50 16z"/>
<path d="M2451 2560 c-14 -64 -14 -103 -1 -95 6 3 10 14 10 23 0 70 47 130 77
99 12 -12 13 -24 5 -63 -6 -27 -7 -53 -2 -57 7 -8 30 73 30 107 0 27 -29 41
-61 29 -16 -6 -29 -7 -29 -2 0 5 -4 9 -9 9 -5 0 -14 -23 -20 -50z"/>
<path d="M2721 2594 c-28 -20 -50 -69 -43 -96 8 -32 39 -42 69 -23 21 14 27
15 34 4 12 -20 16 -10 24 64 l7 67 -34 0 c-18 0 -44 -7 -57 -16z m69 -6 c0
-60 -42 -117 -76 -104 -17 7 -18 55 -1 77 25 33 77 51 77 27z"/>
<path d="M3082 2590 c-23 -22 -36 -58 -30 -87 5 -26 50 -45 79 -34 23 9 23 10
-6 10 -54 1 -80 51 -27 51 35 0 72 25 72 49 0 35 -55 42 -88 11z m66 -19 c-2
-10 -15 -17 -36 -19 -37 -4 -42 10 -11 32 25 17 51 10 47 -13z"/>
<path d="M3282 2598 c-18 -18 -15 -39 9 -64 27 -29 18 -54 -18 -55 -24 0 -25
-1 -8 -8 53 -21 84 32 44 75 -18 20 -20 26 -9 39 7 9 19 14 27 11 7 -3 13 -1
13 4 0 14 -44 12 -58 -2z"/>
<path d="M3601 2591 c-58 -58 -27 -138 47 -122 l27 6 -30 3 c-57 7 -79 52 -26
52 16 0 39 9 52 19 20 16 22 23 13 38 -16 26 -59 28 -83 4z m64 -16 c0 -15 -8
-21 -32 -23 -37 -4 -41 3 -16 30 21 23 48 19 48 -7z"/>
<path d="M3797 2568 c-4 -24 -9 -59 -12 -78 -6 -32 -5 -33 8 -17 8 9 17 35 21
57 7 42 44 78 67 65 10 -7 8 -77 -3 -110 -2 -6 2 -11 7 -13 12 -4 30 99 22
122 -8 19 -48 21 -66 4 -11 -10 -14 -10 -18 0 -9 24 -20 11 -26 -30z"/>
<path d="M4172 2598 c-18 -18 -14 -48 10 -67 28 -23 18 -51 -19 -51 -24 -1
-26 -2 -10 -11 14 -8 24 -7 43 5 29 20 31 39 3 67 -23 23 -21 55 4 53 9 -1 17
2 17 7 0 13 -34 11 -48 -3z"/>
<path d="M4355 2586 c-36 -36 -36 -98 1 -115 15 -6 36 -8 48 -4 18 6 16 8 -14
13 -27 4 -36 10 -38 28 -3 18 1 22 26 22 16 0 40 9 53 19 20 16 22 23 13 38
-17 29 -60 28 -89 -1z m64 1 c14 -18 -5 -37 -36 -37 -27 0 -31 24 -5 39 23 14
28 13 41 -2z"/>
<path d="M4569 2581 c-18 -19 -29 -40 -29 -58 0 -44 13 -56 54 -51 24 3 36 0
36 -8 0 -23 -31 -44 -63 -44 -26 -1 -29 -2 -15 -11 24 -13 66 -1 83 25 16 24
45 162 37 171 -3 3 -21 5 -39 5 -25 0 -43 -8 -64 -29z m75 -24 c-2 -59 -46
-96 -74 -62 -25 30 20 110 58 103 13 -3 17 -13 16 -41z"/>
<path d="M4786 2573 c-14 -89 2 -121 51 -102 13 5 30 6 38 3 11 -5 15 1 15 22
0 16 5 46 11 67 11 40 5 62 -10 38 -5 -8 -12 -30 -15 -51 -7 -42 -37 -75 -62
-66 -14 5 -15 16 -10 66 8 66 -7 84 -18 23z"/>
<path d="M5021 2547 c-14 -82 -14 -94 0 -80 6 6 15 30 20 54 6 28 20 52 37 66
18 16 22 23 12 23 -9 0 -21 -5 -28 -12 -9 -9 -12 -9 -12 0 0 7 -4 12 -9 12 -5
0 -14 -28 -20 -63z"/>
<path d="M5200 2592 c-17 -14 -23 -29 -24 -62 -1 -39 2 -46 26 -58 36 -17 80
4 98 49 12 27 11 36 -1 58 -19 33 -66 40 -99 13z m68 -4 c29 -29 2 -108 -38
-108 -44 0 -53 57 -15 95 27 28 36 30 53 13z"/>
<path d="M5426 2594 c-21 -20 -20 -27 4 -49 11 -10 20 -29 20 -42 0 -18 -5
-23 -27 -23 -25 -1 -26 -2 -10 -11 14 -8 24 -7 43 5 30 20 31 39 3 65 -24 22
-22 57 4 55 9 -1 17 2 17 7 0 15 -37 10 -54 -7z"/>
<path d="M5720 2606 c0 -3 7 -35 16 -72 l15 -67 -25 -26 c-31 -33 -33 -46 -5
-31 31 17 130 200 108 200 -6 0 -22 -26 -37 -57 -29 -64 -27 -65 -47 30 -3 15
-10 27 -15 27 -6 0 -10 -2 -10 -4z"/>
<path d="M6067 2588 c-15 -60 -20 -131 -9 -124 7 4 15 26 19 49 4 28 16 51 36
70 17 16 23 27 15 27 -8 0 -19 -5 -26 -12 -9 -9 -12 -9 -12 0 0 21 -18 13 -23
-10z"/>
<path d="M6230 2539 c-12 -72 -8 -101 8 -58 5 13 13 48 17 77 11 80 -11 64
-25 -19z"/>
<path d="M6392 2590 c-23 -22 -36 -58 -30 -87 5 -26 50 -45 79 -34 23 9 23 10
-6 10 -54 1 -80 51 -27 51 35 0 72 25 72 49 0 35 -55 42 -88 11z m63 -16 c0
-14 -8 -20 -32 -22 -38 -4 -43 10 -11 32 27 20 43 16 43 -10z"/>
<path d="M6598 2599 c-24 -14 -23 -45 3 -63 27 -18 21 -48 -11 -56 -18 -4 -21
-8 -10 -12 8 -3 25 -2 38 3 28 11 29 45 1 75 -23 25 -19 41 15 54 20 8 20 9 1
9 -11 0 -28 -4 -37 -10z"/>
<path d="M6787 2590 c-16 -13 -29 -36 -33 -57 -6 -30 -3 -39 15 -54 17 -14 28
-16 47 -9 18 7 24 6 24 -5 0 -25 -32 -47 -62 -43 -15 3 -28 1 -28 -4 0 -19 70
-11 92 10 17 17 51 159 41 175 -9 15 -71 6 -96 -13z m73 -24 c0 -36 -32 -86
-55 -86 -8 0 -19 9 -25 20 -13 25 12 86 38 93 37 10 42 7 42 -27z"/>
<path d="M7015 2584 c-29 -31 -33 -85 -9 -104 22 -19 70 -16 94 5 11 10 22 33
26 52 13 68 -62 100 -111 47z m79 -3 c28 -31 -4 -101 -45 -101 -43 0 -47 76
-6 105 27 19 30 19 51 -4z"/>
<path d="M7252 2598 c-18 -18 -15 -39 9 -64 27 -29 19 -54 -18 -54 -24 -1 -26
-2 -10 -11 14 -8 24 -7 43 5 29 20 31 39 3 67 -23 23 -21 55 4 53 9 -1 17 2
17 7 0 13 -34 11 -48 -3z"/>
<path d="M8191 2596 c-30 -16 -50 -52 -51 -89 0 -36 33 -50 73 -31 16 9 27 10
27 4 0 -5 4 -10 8 -10 9 0 32 121 25 133 -7 11 -56 8 -82 -7z m56 -37 c-6 -48
-33 -81 -61 -77 -35 5 -33 53 3 88 16 17 37 30 47 30 14 0 16 -7 11 -41z"/>
<path d="M5683 1358 c-184 -183 -339 -341 -344 -350 -14 -26 45 -90 76 -82
l24 6 1 -344 c0 -329 1 -344 20 -363 20 -19 33 -20 583 -18 309 2 567 3 574 3
33 0 60 78 33 95 -6 4 -10 120 -10 317 0 285 1 310 17 304 17 -7 83 48 83 68
0 20 -684 696 -704 696 -12 0 -146 -126 -353 -332z m699 -15 c186 -186 338
-342 338 -347 0 -14 -41 -56 -54 -56 -6 0 -150 140 -321 310 l-310 310 -310
-310 c-170 -170 -314 -310 -319 -310 -14 0 -56 41 -56 55 0 13 673 685 686
685 5 0 161 -152 346 -337z m248 -705 l0 -308 -23 0 c-13 0 -32 8 -41 19 -12
14 -30 18 -65 18 -35 -1 -56 5 -76 21 -34 27 -45 27 -76 3 -27 -21 -77 -32
-85 -20 -11 18 -63 9 -81 -14 -10 -13 -30 -27 -44 -30 -36 -9 -56 -49 -41 -82
l12 -25 -70 0 -70 0 0 283 c0 207 -3 286 -12 295 -17 17 -319 17 -336 0 -9 -9
-12 -88 -12 -295 l0 -283 -64 0 c-101 0 -96 -19 -96 390 l0 345 292 292 293
293 297 -297 298 -298 0 -307z m-682 -130 l2 -288 -165 0 -165 0 0 278 c0 206
3 281 12 290 9 9 54 12 163 10 l150 -3 3 -287z m476 -139 c8 -12 19 -18 26
-14 6 4 17 2 25 -5 10 -9 19 -9 35 0 24 13 50 -1 50 -26 0 -9 12 -14 33 -14
53 0 76 -40 41 -74 -13 -14 -51 -16 -258 -16 -254 0 -266 2 -266 45 0 27 18
45 47 45 13 0 23 5 23 12 0 18 31 48 50 48 10 0 23 -7 30 -15 8 -10 18 -12 29
-6 9 5 22 6 29 4 8 -3 20 4 28 16 19 27 59 27 78 0z"/>
<path d="M6040 791 c-15 -29 -13 -313 3 -335 11 -15 36 -17 239 -19 166 -1
230 1 239 10 14 14 21 305 8 341 -8 22 -9 22 -243 22 -222 0 -236 -1 -246 -19z
m475 -166 l0 -170 -230 0 -230 0 -3 160 c-1 87 0 165 2 172 4 11 53 13 233 11
l228 -3 0 -170z"/>
<path d="M6084 757 c-2 -7 -3 -71 -2 -143 l3 -129 197 -3 198 -2 5 22 c3 13 4
77 3 143 l-3 120 -198 3 c-157 2 -199 0 -203 -11z m384 -9 c18 -18 15 -56 -5
-62 -10 -3 -97 -4 -193 -3 l-175 2 -3 29 c-2 16 2 32 10 37 21 14 352 11 366
-3z m3 -95 c2 -32 -2 -148 -6 -151 -6 -6 -354 -4 -364 3 -12 7 -15 147 -4 158
3 4 89 7 190 7 167 0 183 -2 184 -17z"/>
<path d="M8110 1593 c-54 -37 -76 -95 -59 -157 l11 -39 -113 -113 c-102 -102
-114 -111 -136 -103 -39 15 -96 10 -126 -10 -38 -25 -55 -51 -63 -98 -13 -84
47 -153 136 -153 59 0 101 27 125 79 16 37 17 48 6 89 l-12 46 111 111 112
112 39 -11 c28 -7 51 -7 81 1 l43 12 115 -112 115 -112 -4 -67 c-3 -64 -2 -68
32 -104 31 -34 40 -38 96 -42 60 -4 61 -4 102 37 l41 41 -3 67 -4 68 116 113
c109 106 119 113 139 102 14 -7 44 -10 73 -7 42 4 56 10 83 40 44 48 52 94 25
149 -25 53 -65 78 -123 78 -100 0 -164 -99 -124 -191 5 -12 -26 -47 -118 -133
-109 -102 -128 -116 -145 -107 -25 14 -87 14 -112 0 -17 -9 -36 4 -143 105
l-123 116 10 40 c15 56 -6 116 -52 147 -42 28 -115 31 -151 6z"/>
<path d="M4070 1553 c-14 -10 -33 -28 -43 -40 -40 -50 -69 -56 -277 -62 l-195
-6 -3 -325 c-2 -233 1 -338 10 -370 15 -58 126 -174 245 -259 119 -85 264
-156 317 -156 124 0 501 261 559 387 15 32 17 79 17 387 l0 351 -160 0 c-203
0 -243 8 -310 66 -43 37 -58 44 -94 44 -23 0 -53 -8 -66 -17z m122 -142 c60
-51 75 -55 233 -61 l150 -5 3 -260 c3 -310 2 -314 -93 -404 -113 -106 -293
-211 -360 -211 -88 0 -352 177 -417 279 l-28 45 0 273 0 273 128 0 c157 1 195
9 241 53 56 54 96 59 143 18z"/>
<path d="M1571 1328 c-28 -5 -107 -45 -218 -109 -96 -56 -173 -102 -171 -104
2 -1 37 1 78 4 75 6 77 7 232 106 87 55 158 103 158 107 0 8 -17 7 -79 -4z"/>
<path d="M1827 1333 c-4 -3 -7 -21 -7 -40 l0 -33 50 31 c27 17 52 35 55 40 7
10 -88 13 -98 2z"/>
<path d="M1938 1254 c-92 -59 -118 -81 -118 -98 0 -22 1 -22 143 -19 265 6
254 5 330 53 37 24 67 49 67 55 0 15 -38 49 -77 69 -23 12 -59 16 -130 16
l-98 0 -117 -76z"/>
<path d="M1638 1202 c-59 -37 -107 -70 -108 -74 0 -4 21 -4 47 -1 76 9 180 83
182 131 1 20 -8 15 -121 -56z"/>
<path d="M2343 1179 c-18 -12 -33 -23 -33 -25 0 -2 18 -4 40 -4 36 0 40 3 40
25 0 30 -6 31 -47 4z"/>
<path d="M2827 1108 c13 -68 20 -78 57 -78 44 0 50 10 36 59 -11 41 -24 51
-71 51 -27 0 -28 -2 -22 -32z"/>
<path d="M2325 1120 c-4 -6 9 -10 32 -10 28 0 34 3 23 10 -20 13 -47 13 -55 0z"/>
<path d="M1665 1090 c-4 -6 8 -10 30 -10 22 0 34 4 30 10 -3 6 -17 10 -30 10
-13 0 -27 -4 -30 -10z"/>
<path d="M2333 1083 c9 -2 25 -2 35 0 9 3 1 5 -18 5 -19 0 -27 -2 -17 -5z"/>
<path d="M1665 1060 c3 -5 17 -10 30 -10 13 0 27 5 30 10 4 6 -8 10 -30 10
-22 0 -34 -4 -30 -10z"/>
<path d="M2385 925 c-90 -32 -147 -135 -125 -224 50 -199 327 -202 379 -5 26
97 -38 206 -136 233 -49 14 -69 13 -118 -4z m132 -65 c122 -74 76 -251 -66
-253 -102 -2 -172 104 -127 191 16 30 53 66 76 75 32 12 87 6 117 -13z"/>
<path d="M2381 824 c-79 -66 -33 -187 71 -187 75 0 128 85 94 151 -34 66 -110
83 -165 36z m123 -16 c40 -35 43 -78 11 -116 -20 -24 -35 -32 -60 -32 -47 0
-64 8 -80 41 -22 42 -18 67 14 100 36 36 79 38 115 7z"/>
<path d="M710 904 c-160 -69 -159 -291 2 -359 161 -67 322 102 249 260 -44 96
-156 140 -251 99z m147 -64 c46 -28 66 -72 60 -134 -4 -41 -10 -55 -41 -83
-32 -29 -42 -33 -92 -33 -52 0 -59 3 -95 39 -36 35 -39 43 -39 93 0 33 6 62
16 77 42 59 130 78 191 41z"/>
<path d="M728 814 c-36 -19 -48 -43 -48 -94 0 -61 41 -100 105 -100 84 0 129
76 93 155 -23 50 -95 69 -150 39z m116 -30 c55 -55 18 -144 -59 -144 -49 0
-85 36 -85 85 0 77 89 114 144 59z"/>
<path d="M430 783 c-74 -7 -80 -11 -80 -48 0 -56 27 -75 105 -75 64 0 65 0 65
28 0 15 3 44 6 65 7 37 7 37 -27 35 -19 0 -50 -3 -69 -5z"/>
</g>
</svg>
